<svg width="35" height="42" viewBox="0 0 35 42" fill="none" xmlns="http://www.w3.org/2000/svg">
<path d="M26.25 13.2588V9.4882C26.25 8.31324 26.0237 7.14978 25.5839 6.06426C25.1442 4.97874 24.4997 3.99241 23.6872 3.16158C22.8747 2.33076 21.9101 1.67172 20.8485 1.22208C19.7869 0.772441 18.6491 0.541016 17.5 0.541016C16.3509 0.541016 15.2131 0.772441 14.1515 1.22208C13.0899 1.67172 12.1253 2.33076 11.3128 3.16158C10.5003 3.99241 9.85578 4.97874 9.41605 6.06426C8.97633 7.14978 8.75 8.31324 8.75 9.4882V18.4354C8.75 18.7744 8.8817 19.0995 9.11612 19.3392C9.35054 19.5789 9.66848 19.7135 10 19.7135C10.3315 19.7135 10.6495 19.5789 10.8839 19.3392C11.1183 19.0995 11.25 18.7744 11.25 18.4354V15.8151H21.25V13.2588H11.25V9.4882C11.25 7.79324 11.9085 6.1677 13.0806 4.96919C14.2527 3.77067 15.8424 3.09735 17.5 3.09735C19.1576 3.09735 20.7473 3.77067 21.9194 4.96919C23.0915 6.1677 23.75 7.79324 23.75 9.4882V18.3715C23.75 18.7105 23.8817 19.0356 24.1161 19.2753C24.3505 19.515 24.6685 19.6496 25 19.6496C25.3315 19.6496 25.6495 19.515 25.8839 19.2753C26.1183 19.0356 26.25 18.7105 26.25 18.3715V15.8151H32.5V38.8222H2.5V15.8151H6.25V13.2588H0V38.9372C0 39.5847 0.251539 40.2056 0.699282 40.6635C1.14703 41.1213 1.7543 41.3785 2.3875 41.3785H32.6125C33.2457 41.3785 33.853 41.1213 34.3007 40.6635C34.7485 40.2056 35 39.5847 35 38.9372V13.2588H26.25Z" fill="white"/>
</svg>
